# xmcd CD database file
#
# Track frame offsets:
#	150
#	17102
#	32500
#	62725
#	84314
#	112529
#	129824
#	147494
#	172189
#	202615
#
# Disc length: 3078 seconds
#
# Revision: 0
# Processed by: cddbd v1.5.1PL0 Copyright (c) Steve Scherf et al.
# Submitted via: CDex 1.40Release
#
DISCID=740c040a
DTITLE=Mike Andersen Band - Tomorrow
DYEAR=2004
DGENRE=Blues
TTITLE0=Same Damn Time
TTITLE1=Come Sing With Me
TTITLE2=Tomorrow
TTITLE3=Nobody Else But You
TTITLE4=Stuck With Me
TTITLE5=Words Ain't Enough
TTITLE6=Encore - One More
TTITLE7=Lessons
TTITLE8=We Don't Make Love
TTITLE9=Fooling Yourself
EXTD=YEAR: 2004 ID3G: 0
EXTT0=
EXTT1=
EXTT2=
EXTT3=
EXTT4=
EXTT5=
EXTT6=
EXTT7=
EXTT8=
EXTT9=
PLAYORDER=
